<svg width="139" height="51" viewBox="0 0 139 51" fill="none" xmlns="http://www.w3.org/2000/svg">
<path d="M45.4942 35.5449C41.8115 43.2154 33.9651 48.5193 24.8968 48.5193C12.3098 48.5193 2.06483 38.2956 2.06483 25.7279C2.06483 13.1601 12.3041 2.93082 24.8911 2.93082C33.9255 2.93082 41.7549 8.2008 45.449 15.8262C46.4163 16.0634 47.3328 16.4362 48.17 16.9276C44.6117 7.55124 35.5151 0.869141 24.8911 0.869141C11.1671 0.869141 0 12.0191 0 25.7222C0 39.4253 11.1671 50.5753 24.8911 50.5753C35.5491 50.5753 44.6626 43.8537 48.204 34.4265C47.3667 34.9179 46.4559 35.302 45.4886 35.5392L45.4942 35.5449Z" fill="#255FFF"/>
<path d="M40.4876 35.522C37.2235 40.6904 31.4533 44.1246 24.8967 44.1246C14.7366 44.1246 6.46596 35.8666 6.46596 25.722C6.46596 15.5774 14.7309 7.32508 24.8911 7.32508C31.4193 7.32508 37.1669 10.7367 40.4424 15.8655C41.1495 15.6791 41.8906 15.5661 42.6543 15.5435C39.1129 9.4037 32.4772 5.26905 24.8854 5.26905C13.5939 5.2634 4.40112 14.4421 4.40112 25.722C4.40112 37.0019 13.5939 46.1806 24.8911 46.1806C32.5055 46.1806 39.1639 42.0064 42.6939 35.8384C41.9302 35.8101 41.1891 35.7084 40.482 35.522H40.4876Z" fill="#779DD8"/>
<path d="M36.5448 33.5113C34.0217 37.2562 29.7393 39.7302 24.8912 39.7302C17.1523 39.7302 10.8617 33.4492 10.8617 25.7221C10.8617 17.9951 17.1523 11.714 24.8912 11.714C29.7224 11.714 33.9878 14.1654 36.5165 17.8878C37.0426 17.4528 37.614 17.0631 38.2193 16.7355C35.3229 12.4653 30.4295 9.65234 24.8912 9.65234C16.0209 9.65234 8.80249 16.8597 8.80249 25.7165C8.80249 34.5732 16.0209 41.7806 24.8912 41.7806C30.4578 41.7806 35.3681 38.9451 38.2532 34.6467C37.6423 34.3247 37.0652 33.9406 36.5391 33.5057L36.5448 33.5113Z" fill="#ACC8FF"/>
<path d="M25.0777 17.0293C20.0655 17.0293 16.428 20.6838 16.428 25.7279C16.428 30.7719 20.1164 34.4265 25.1964 34.4265C28.3701 34.4265 31.0289 33.0426 32.4828 30.6307L32.8165 30.0772L30.3274 28.6086L30.0106 29.1904C29.1621 30.738 27.3744 31.6644 25.2247 31.6644C22.2661 31.6644 20.0146 29.8851 19.4206 27.1739H33.3144V26.5356C33.3144 26.4283 33.32 26.3153 33.3257 26.208C33.337 26.0724 33.3426 25.9369 33.3426 25.7957C33.3426 23.508 32.5563 21.3503 31.1251 19.7292C29.5977 17.9952 27.4423 17.0406 25.0663 17.0406L25.0777 17.0293ZM19.4149 24.3779C19.958 21.6102 22.1529 19.7914 25.0777 19.7914C28.1721 19.7914 29.9031 21.9943 30.367 24.3779H19.4149Z" fill="#000A1C"/>
<path d="M49.0696 19.571C47.5648 17.9329 45.466 17.0235 43.0618 17.0235C38.2137 17.0235 34.4121 20.8419 34.4121 25.7221C34.4121 30.6023 38.208 34.4207 43.0618 34.4207C45.466 34.4207 47.5648 33.5113 49.0696 31.8732V34.0818H51.8981V11.1943H49.0696V19.571ZM43.1579 31.6586C39.8429 31.6586 37.2463 29.0547 37.2463 25.7221C37.2463 22.3895 39.8429 19.7856 43.1579 19.7856C46.473 19.7856 49.0696 22.3895 49.0696 25.7221C49.0696 29.0547 46.473 31.6586 43.1579 31.6586Z" fill="#000A1C"/>
<path d="M61.3623 24.3951C59.0938 23.8133 57.7078 23.3897 57.7078 22.051C57.7078 20.4864 59.2465 19.7917 60.774 19.7917C62.3862 19.7917 63.6421 20.5203 64.1343 21.7347L64.4115 22.4125L66.8497 21.023L66.6177 20.4921C65.656 18.3231 63.4724 17.0239 60.774 17.0239C57.3571 17.0239 54.8793 19.1364 54.8793 22.0454C54.8793 25.5135 58.0133 26.3212 60.5364 26.9765C62.8388 27.5695 64.2474 28.0045 64.2474 29.394C64.2474 31.0603 62.5163 31.6534 60.8984 31.6534C58.9128 31.6534 57.4363 30.8005 56.9611 29.377L56.7122 28.6315L54.2344 30.0718L54.4267 30.5802C55.3318 32.9864 57.7474 34.4211 60.8984 34.4211C64.5359 34.4211 67.0703 32.3538 67.0703 29.3996C67.0703 25.8581 63.9023 25.0503 61.3623 24.4008V24.3951Z" fill="#000A1C"/>
<path d="M74.1474 12.8325L71.2905 13.6741V17.3739H67.8906V20.1642H71.2905V29.5575C71.2905 31.2408 71.7374 32.4439 72.6595 33.2347C73.4628 33.9238 74.566 34.257 76.0708 34.257C76.71 34.257 77.4171 34.1949 78.2091 34.0763L78.7522 33.9915V31.3537L78.0564 31.4159C76.4102 31.5627 75.1091 31.6362 74.5773 31.1504C74.2888 30.8849 74.1474 30.3653 74.1474 29.5519V20.1585H78.7522V17.3682H74.1474V12.8325V12.8325Z" fill="#000A1C"/>
<path d="M87.8486 17.0293C82.8365 17.0293 79.199 20.6838 79.199 25.7279C79.199 30.7719 82.8874 34.4265 87.9674 34.4265C91.1411 34.4265 93.7999 33.0426 95.2538 30.6307L95.5875 30.0772L93.0984 28.6086L92.7816 29.1904C91.9331 30.738 90.1454 31.6644 87.9957 31.6644C85.0371 31.6644 82.7856 29.8851 82.1916 27.1739H96.0854V26.5356C96.0854 26.4283 96.091 26.3153 96.0967 26.208C96.108 26.0724 96.1136 25.9369 96.1136 25.7957C96.1136 23.508 95.3273 21.3503 93.8961 19.7292C92.3686 17.9952 90.2133 17.0406 87.8373 17.0406L87.8486 17.0293ZM82.1859 24.3779C82.729 21.6102 84.9239 19.7914 87.8486 19.7914C90.9431 19.7914 92.6741 21.9943 93.138 24.3779H82.1859V24.3779Z" fill="#000A1C"/>
<path d="M101.29 10.2681H98.4614V34.0819H101.29V10.2681Z" fill="#000A1C"/>
<path d="M107.598 10.2681H104.769V34.0819H107.598V10.2681Z" fill="#000A1C"/>
<path d="M124.676 19.5372C123.16 17.9217 121.056 17.0293 118.668 17.0293C113.82 17.0293 110.019 20.8476 110.019 25.7279C110.019 30.6081 113.815 34.4265 118.668 34.4265C121.05 34.4265 123.155 33.5284 124.676 31.9186V34.0876H127.533V17.3739H124.676V19.5428V19.5372ZM118.793 31.6587C115.478 31.6587 112.881 29.0548 112.881 25.7222C112.881 22.3897 115.478 19.7857 118.793 19.7857C122.108 19.7857 124.676 22.3897 124.676 25.7222C124.676 29.0548 122.091 31.6587 118.793 31.6587Z" fill="#000A1C"/>
<path d="M138.361 17.1533C136.471 17.1533 134.944 17.7464 133.841 18.893V17.368H131.012V34.0817H133.841V24.8634C133.841 20.2713 137.303 19.9154 138.361 19.9154H139V17.1533H138.361Z" fill="#000A1C"/>
</svg>
